<?xml version="1.0" encoding="utf-8"?>
<!-- Generator: Adobe Illustrator 15.1.0, SVG Export Plug-In . SVG Version: 6.00 Build 0)  -->
<!DOCTYPE svg PUBLIC "-//W3C//DTD SVG 1.1//EN" "http://www.w3.org/Graphics/SVG/1.1/DTD/svg11.dtd">
<svg version="1.1" id="圖層_1" xmlns="http://www.w3.org/2000/svg" xmlns:xlink="http://www.w3.org/1999/xlink" x="0px" y="0px"
	 width="1280px" height="720px" viewBox="0 0 1280 720" enable-background="new 0 0 1280 720" xml:space="preserve">
<g id="圖層_2">
</g>
<g>
	<path fill="#FF2727" d="M1065.605,0c5.652,24.896-7.714,34.57-8.289,34.972c-3.844,2.943-387.978,297.867-396.33,302.753
		c-6.588,3.854-13.606,4.782-17.737,4.956v0.028l-1,0.007l-7.749-0.048c-4.078-0.198-11-1.148-17.486-4.943
		c-8.129-4.755-380.551-290.677-396.4-302.803c-0.538-0.375-13.9-10.04-8.217-34.922H0v719.999h388.223
		c-3.619-2.566-11.832-8.497-29.931-21.893c-9.832-7.276-15.188-15.304-15.923-23.859c-0.952-11.091,6.292-18.807,6.602-19.13
		l0.832-0.841c25.331-25.604,247.824-250.549,259.497-263.769c11.898-13.479,25.569-14.527,29.477-14.527
		c0.197,0,0.362,0.003,0.493,0.006c0.08-0.004,0.255-0.007,0.468-0.007c3.904,0,17.569,1.048,29.472,14.528
		c11.326,12.828,217.737,221.558,259,263.271l1.302,1.314c0.319,0.335,7.576,8.051,6.625,19.153
		c-0.733,8.556-6.091,16.582-15.923,23.859c-18.107,13.401-26.314,19.329-29.93,21.893H1280V0H1065.605z"/>
	<path fill="#FF2727" d="M223.403,32.516c3.912,2.993,388.159,296.961,396.124,301.621c6.372,3.727,13.379,4.468,16.973,4.58v-0.019
		h4.75v0.024c3.512-0.085,10.702-0.771,17.225-4.587c7.965-4.66,392.211-298.629,396.092-301.598
		c0.542-0.387,12.49-9.158,7.021-32.311l0.97-0.228h-2.054H217.495h-2.053l0.971,0.229
		C210.945,23.381,222.892,32.154,223.403,32.516z"/>
	<path fill="#FF2727" d="M918.427,695.696c9.108-6.742,14.062-14.044,14.718-21.703c0.836-9.755-5.714-16.732-5.78-16.803
		c-2.467-2.492-247.982-250.622-260.408-264.695c-11.486-13.013-25.104-13.521-27.516-13.506v0.01c-0.008-0.002-0.369,0-0.378,0
		v-0.01c-2.412-0.017-16.029,0.495-27.516,13.506c-12.425,14.073-257.94,262.203-260.421,264.708
		c-0.054,0.058-6.612,7.079-5.767,16.815c0.666,7.651,5.617,14.944,14.716,21.678c27.295,20.2,32.146,23.44,32.19,23.471
		L391.714,720h1.198h492.677h1.199l-0.553-0.834C886.281,719.135,891.133,715.896,918.427,695.696z"/>
</g>
</svg>
