<?xml version="1.0" encoding="utf-8"?>
<!-- Generator: Adobe Illustrator 15.1.0, SVG Export Plug-In . SVG Version: 6.00 Build 0)  -->
<!DOCTYPE svg PUBLIC "-//W3C//DTD SVG 1.1//EN" "http://www.w3.org/Graphics/SVG/1.1/DTD/svg11.dtd">
<svg version="1.1" xmlns="http://www.w3.org/2000/svg" xmlns:xlink="http://www.w3.org/1999/xlink" x="0px" y="0px" width="1280px"
	 height="720px" viewBox="0 0 1280 720" enable-background="new 0 0 1280 720" xml:space="preserve">
<g id="圖層_2">
</g>
<g id="圖層_1">
	<g>
		<path fill="#FF2727" d="M223.403,32.516c3.912,2.993,388.159,296.961,396.124,301.621c6.372,3.727,13.379,4.468,16.973,4.58
			v-0.018h4.749v0.024c3.512-0.085,10.703-0.771,17.225-4.587c7.965-4.66,392.211-298.629,396.092-301.598
			c0.542-0.386,12.49-9.158,7.021-32.31L1062.557,0H215.443l0.971,0.229C210.945,23.381,222.892,32.154,223.403,32.516z"/>
		<path fill="#FF2727" d="M1063.583,0c5.659,24.371-7.282,33.764-7.839,34.152c-15.813,12.101-388.191,296.988-396.263,301.71
			c-7,4.097-14.525,4.785-18.233,4.849v0.006h-4.749v-0.013c-3.788-0.09-11.136-0.837-17.981-4.842
			c-8.071-4.722-380.449-289.609-396.297-301.734c-0.522-0.364-13.463-9.758-7.803-34.128H0v720h389.955
			c-2.619-1.837-10.347-7.36-31.068-22.696c-9.593-7.1-14.813-14.884-15.521-23.141c-0.913-10.645,6.031-18.044,6.327-18.354
			c2.49-2.519,247.968-250.608,260.355-264.639c12.386-14.031,26.799-14.249,29.192-14.184c2.329-0.069,16.793,0.111,29.217,14.184
			c12.388,14.03,257.863,262.12,260.34,264.626c0.308,0.321,7.252,7.721,6.34,18.366c-0.708,8.257-5.93,16.041-15.521,23.141
			c-20.722,15.336-28.448,20.859-31.067,22.696H1280V0H1063.583z"/>
		<path fill="#FF2727" d="M918.427,695.696c9.109-6.742,14.062-14.044,14.718-21.703c0.836-9.755-5.714-16.733-5.78-16.803
			c-2.467-2.492-247.983-250.622-260.408-264.695c-11.487-13.013-25.104-13.521-27.516-13.506v0.01c-0.008-0.002-0.369,0-0.378,0
			v-0.01c-2.412-0.017-16.029,0.495-27.516,13.506c-12.424,14.073-257.94,262.203-260.42,264.708
			c-0.054,0.057-6.613,7.079-5.767,16.815c0.666,7.651,5.617,14.944,14.716,21.678c27.295,20.2,32.145,23.44,32.19,23.471
			L391.714,720h495.075l-0.553-0.834C886.281,719.135,891.132,715.896,918.427,695.696z"/>
	</g>
</g>
</svg>
