<?xml version="1.0" encoding="utf-8"?>
<!-- Generator: Adobe Illustrator 15.1.0, SVG Export Plug-In . SVG Version: 6.00 Build 0)  -->
<!DOCTYPE svg PUBLIC "-//W3C//DTD SVG 1.1//EN" "http://www.w3.org/Graphics/SVG/1.1/DTD/svg11.dtd">
<svg version="1.1" id="圖層_1" xmlns="http://www.w3.org/2000/svg" xmlns:xlink="http://www.w3.org/1999/xlink" x="0px" y="0px"
	 width="1280px" height="720px" viewBox="0 0 1280 720" enable-background="new 0 0 1280 720" xml:space="preserve">
<g id="圖層_2">
</g>
<path fill="#FF0000" d="M218.065,2c-4.428,20.855,6.038,28.561,6.495,28.884l0.029,0.021l0.029,0.022
	c3.88,2.968,388.067,296.889,395.918,301.483c5.74,3.356,12.071,4.139,15.593,4.291l0.37-0.003h4.75h0.68
	c3.62-0.16,9.854-0.966,15.535-4.289c6.138-3.591,251.583-191.066,395.645-301.275l0.242-0.185l0.026-0.02l0.026-0.02
	c0.458-0.327,10.948-8.093,6.531-28.91H218.065z"/>
<path fill="#FF0000" d="M665.458,393.819c-9.057-10.26-19.473-12.337-24.017-12.738v0.507l-2.258-0.589h-0.092l-0.825,0.004
	c-3.584,0.138-15.225,1.494-25.22,12.815C600.702,407.8,356.39,654.729,352.574,658.582c-0.333,0.368-5.962,6.741-5.222,15.263
	c0.614,7.055,5.295,13.865,13.913,20.243c26.756,19.802,31.907,23.277,32.113,23.416l0.74,0.496h490.275l0.717-0.487
	c0.227-0.152,5.538-3.747,32.128-23.425c8.628-6.387,13.31-13.205,13.914-20.267c0.734-8.56-4.93-14.917-5.231-15.248
	C922.272,654.887,677.835,407.836,665.458,393.819z"/>
</svg>
