<?xml version="1.0" encoding="utf-8"?>
<!-- Generator: Adobe Illustrator 15.1.0, SVG Export Plug-In . SVG Version: 6.00 Build 0)  -->
<!DOCTYPE svg PUBLIC "-//W3C//DTD SVG 1.1//EN" "http://www.w3.org/Graphics/SVG/1.1/DTD/svg11.dtd">
<svg version="1.1" id="圖層_1" xmlns="http://www.w3.org/2000/svg" xmlns:xlink="http://www.w3.org/1999/xlink" x="0px" y="0px"
	 width="1280px" height="720px" viewBox="0 0 1280 720" enable-background="new 0 0 1280 720" xml:space="preserve">
<g id="圖層_2">
</g>
<g>
	<path d="M1062.557,0l-0.97,0.228c5.469,23.152-6.479,31.924-7.021,32.311c-3.881,2.969-388.127,296.938-396.092,301.598
		c-6.522,3.815-13.713,4.502-17.225,4.587v-0.024h-4.75v0.019c-3.594-0.112-10.601-0.854-16.973-4.58
		c-7.965-4.66-392.212-298.628-396.124-301.621c-0.511-0.362-12.458-9.135-6.99-32.287L215.442,0H0v720h391.714l0.553-0.834
		c-0.045-0.03-4.896-3.271-32.19-23.471c-9.099-6.733-14.05-14.026-14.716-21.678c-0.846-9.736,5.713-16.758,5.767-16.815
		c2.48-2.505,247.996-250.635,260.421-264.708c11.486-13.011,25.104-13.522,27.516-13.506v0.01c0.009,0,0.37-0.002,0.378,0v-0.01
		c2.412-0.015,16.029,0.493,27.516,13.506c12.426,14.073,257.941,262.203,260.408,264.695c0.066,0.07,6.616,7.048,5.78,16.803
		c-0.656,7.659-5.609,14.961-14.718,21.703c-27.295,20.2-32.146,23.439-32.192,23.471l0.553,0.834H1280V0H1062.557z"/>
</g>
</svg>
