<?xml version="1.0" encoding="utf-8"?>
<!-- Generator: Adobe Illustrator 15.1.0, SVG Export Plug-In . SVG Version: 6.00 Build 0)  -->
<!DOCTYPE svg PUBLIC "-//W3C//DTD SVG 1.1//EN" "http://www.w3.org/Graphics/SVG/1.1/DTD/svg11.dtd">
<svg version="1.1" xmlns="http://www.w3.org/2000/svg" xmlns:xlink="http://www.w3.org/1999/xlink" x="0px" y="0px" width="160px"
	 height="420px" viewBox="0 0 160 420" enable-background="new 0 0 160 420" xml:space="preserve">
<g id="圖層_2">
	<g>
		<g>
			<g>
				<path opacity="0.3" fill="#FFFFFF" d="M40,2.083c20.401,0,37,16.897,37,37.667S60.401,77.417,40,77.417
					c-20.402,0-37-16.897-37-37.667S19.598,2.083,40,2.083 M40,0.083c-21.54,0-39,17.759-39,39.667c0,21.907,17.46,39.667,39,39.667
					c21.539,0,39-17.759,39-39.667C79,17.842,61.539,0.083,40,0.083L40,0.083z"/>
				<path opacity="0.8" fill="#6DD300" d="M58.894,72.187c0.739,1.783-0.104,3.822-1.885,4.563
					c-21.345,8.868-45.92-1.282-54.791-22.626c-0.738-1.781,0.021-4.046,1.803-4.786c1.851-0.769,3.918,0.209,4.644,2.097
					c0.001,0.003,0.004,0.006,0.004,0.006c7.395,17.796,27.874,26.253,45.662,18.862C56.112,69.563,58.151,70.406,58.894,72.187z"/>
			</g>
			<g opacity="0.4">
				<path fill="#FFFFFF" d="M37.915,13.954h4.838l17.825,45.453h-4.647l-5.538-14.132H29.703l-5.475,14.132h-4.647L37.915,13.954z
					 M31.04,41.583h17.888l-8.785-23.299L31.04,41.583z"/>
			</g>
		</g>
		<g>
			<circle opacity="0.3" fill="#FFFFFF" cx="120.301" cy="39.515" r="39"/>
			<g>
				<path opacity="0.3" fill="#FFFFFF" d="M120,2.083c20.401,0,37,16.897,37,37.667s-16.599,37.667-37,37.667
					c-20.402,0-37-16.897-37-37.667S99.598,2.083,120,2.083 M120,0.083c-21.54,0-39,17.759-39,39.667
					c0,21.907,17.46,39.667,39,39.667c21.539,0,39-17.759,39-39.667C159,17.842,141.539,0.083,120,0.083L120,0.083z"/>
				<path fill="#6DD300" d="M138.711,71.986c0.738,1.782-0.104,3.821-1.885,4.563c-21.346,8.868-45.92-1.281-54.791-22.626
					c-0.74-1.781,0.02-4.046,1.803-4.786c1.85-0.769,3.918,0.21,4.643,2.098c0.002,0.003,0.004,0.006,0.004,0.006
					c7.395,17.797,27.875,26.253,45.662,18.862C135.93,69.362,137.969,70.206,138.711,71.986z"/>
			</g>
			<g opacity="0.6">
				<path fill="#FFFFFF" d="M117.732,13.753h4.838l17.824,45.453h-4.646l-5.539-14.132H109.52l-5.475,14.132h-4.646L117.732,13.753z
					 M110.857,41.382h17.888l-8.784-23.299L110.857,41.382z"/>
			</g>
		</g>
	</g>
	<g>
		<g>
			<g>
				<path opacity="0.3" fill="#FFFFFF" d="M13.174,93.195c14.427-14.426,38.111-14.215,52.798,0.472
					c14.686,14.686,14.897,38.371,0.471,52.797c-14.426,14.426-38.11,14.215-52.797-0.471S-1.252,107.621,13.174,93.195
					 M11.76,91.78c-15.23,15.23-15.02,40.135,0.472,55.626c15.49,15.491,40.396,15.702,55.625,0.471
					c15.231-15.23,15.02-40.135-0.471-55.625C51.895,76.761,26.99,76.55,11.76,91.78L11.76,91.78z"/>
			</g>
			<g opacity="0.4">
				<path fill="#FFFFFF" d="M24.61,95.954h19.225c7.639,0,14.578,2.674,14.578,11.141c0,4.774-3.183,9.167-7.894,10.186v0.127
					c5.856,0.764,9.612,5.156,9.612,11.077c0,4.329-1.528,12.923-16.297,12.923H24.61V95.954z M28.939,115.88h14.896
					c6.875,0,10.25-3.438,10.25-7.703c0-5.666-3.438-8.53-10.25-8.53H28.939V115.88z M28.939,137.715h14.896
					c6.43,0,11.968-1.973,11.968-9.358c0-5.856-4.329-8.785-11.968-8.785H28.939V137.715z"/>
			</g>
			<path opacity="0.8" fill="#EB0009" d="M72.058,101.05c1.782-0.739,3.821,0.104,4.563,1.885
				c8.868,21.345-1.282,45.92-22.626,54.791c-1.781,0.738-4.046-0.02-4.786-1.802c-0.769-1.851,0.209-3.918,2.097-4.644
				c0.003-0.001,0.007-0.004,0.007-0.004c17.796-7.394,26.253-27.874,18.862-45.662C69.434,103.832,70.277,101.793,72.058,101.05z"
				/>
		</g>
		<g>
			<circle opacity="0.3" fill="#FFFFFF" cx="119.301" cy="119.515" r="39"/>
			<g>
				<path opacity="0.3" fill="#FFFFFF" d="M93.245,93.165c14.427-14.426,38.111-14.214,52.798,0.472
					c14.686,14.687,14.898,38.371,0.471,52.797c-14.426,14.426-38.11,14.215-52.797-0.471
					C79.031,131.276,78.819,107.591,93.245,93.165 M91.831,91.751c-15.23,15.23-15.02,40.135,0.472,55.626
					c15.49,15.491,40.395,15.702,55.625,0.471c15.231-15.231,15.02-40.135-0.471-55.625C131.966,76.731,107.063,76.52,91.831,91.751
					L91.831,91.751z"/>
			</g>
			<path fill="#EB0009" d="M151.853,101.05c1.782-0.739,3.821,0.104,4.563,1.885c8.868,21.345-1.282,45.92-22.626,54.791
				c-1.781,0.738-4.046-0.02-4.786-1.802c-0.769-1.851,0.209-3.918,2.097-4.644c0.003-0.001,0.007-0.004,0.007-0.004
				c17.796-7.394,26.253-27.874,18.862-45.662C149.229,103.832,150.071,101.793,151.853,101.05z"/>
			<g opacity="0.6">
				<path fill="#FFFFFF" d="M104.428,95.753h19.225c7.639,0,14.578,2.674,14.578,11.141c0,4.774-3.184,9.167-7.894,10.186v0.127
					c5.856,0.764,9.612,5.156,9.612,11.077c0,4.329-1.527,12.923-16.297,12.923h-19.225V95.753z M108.756,115.679h14.896
					c6.875,0,10.25-3.438,10.25-7.703c0-5.666-3.438-8.53-10.25-8.53h-14.896V115.679z M108.756,137.514h14.896
					c6.43,0,11.969-1.973,11.969-9.358c0-5.856-4.33-8.785-11.969-8.785h-14.896V137.514z"/>
			</g>
		</g>
	</g>
	<g>
		<g>
			<g>
				<path opacity="0.3" fill="#FFFFFF" d="M67.16,226.463c-14.427,14.426-38.111,14.215-52.798-0.473
					c-14.686-14.686-14.897-38.37-0.471-52.796c14.426-14.426,38.11-14.215,52.797,0.471
					C81.375,188.352,81.586,212.036,67.16,226.463 M68.574,227.877c15.23-15.23,15.02-40.135-0.472-55.626
					c-15.49-15.49-40.396-15.701-55.625-0.471c-15.231,15.23-15.02,40.134,0.471,55.625
					C28.439,242.896,53.344,243.107,68.574,227.877L68.574,227.877z"/>
				<path opacity="0.7" fill="#00AEFF" d="M30.949,163.532c-0.737-1.783-2.775-2.629-4.559-1.894
					C5.026,170.461-5.174,195.015,3.646,216.38c0.737,1.782,2.875,2.847,4.659,2.11c1.852-0.766,2.622-2.919,1.8-4.768
					c-0.001-0.002-0.001-0.007-0.001-0.007c-7.355-17.813,1.146-38.273,18.95-45.625C30.838,167.354,31.684,165.315,30.949,163.532z
					"/>
			</g>
			<g opacity="0.4">
				<path fill="#FFFFFF" d="M22.218,177.484h5.093l12.859,19.034l13.305-19.034h4.838L42.78,199.638l16.424,23.3h-5.22
					L40.17,202.884l-14.005,20.053h-4.902l16.361-23.427L22.218,177.484z"/>
			</g>
		</g>
		<g>
			<circle opacity="0.3" fill="#FFFFFF" cx="120.301" cy="199.515" r="39"/>
			<g>
				<path opacity="0.3" fill="#FFFFFF" d="M147.219,226.434c-14.426,14.426-38.11,14.214-52.797-0.472
					c-14.687-14.687-14.898-38.37-0.472-52.797c14.427-14.426,38.111-14.215,52.798,0.471
					C161.434,188.322,161.646,212.008,147.219,226.434 M148.633,227.848c15.231-15.23,15.021-40.135-0.471-55.626
					c-15.49-15.49-40.395-15.701-55.626-0.471c-15.23,15.23-15.02,40.134,0.472,55.625S133.402,243.078,148.633,227.848
					L148.633,227.848z"/>
				<path fill="#00AEFF" d="M111.021,163.774c-0.738-1.782-2.775-2.629-4.56-1.894c-21.364,8.823-31.563,33.376-22.744,54.742
					c0.736,1.783,2.875,2.847,4.659,2.109c1.852-0.765,2.622-2.919,1.8-4.766c-0.001-0.004-0.001-0.008-0.001-0.008
					c-7.356-17.813,1.146-38.273,18.95-45.625C110.91,167.597,111.755,165.558,111.021,163.774z"/>
			</g>
			<g opacity="0.6">
				<path fill="#FFFFFF" d="M102.035,177.753h5.092l12.859,19.034l13.305-19.034h4.839l-15.533,22.154l16.425,23.299h-5.221
					l-13.814-20.053l-14.005,20.053h-4.901l16.36-23.427L102.035,177.753z"/>
			</g>
		</g>
	</g>
	<g>
		<g>
			<g>
				<path opacity="0.3" fill="#FFFFFF" d="M13.532,306.821c-14.426-14.427-14.215-38.111,0.473-52.798
					c14.686-14.686,38.37-14.897,52.797-0.471c14.425,14.426,14.214,38.11-0.472,52.797
					C51.644,321.036,27.959,321.247,13.532,306.821 M12.118,308.235c15.23,15.23,40.135,15.02,55.626-0.472
					c15.49-15.49,15.701-40.396,0.472-55.625c-15.23-15.231-40.135-15.02-55.626,0.471C-2.901,268.101-3.112,293.005,12.118,308.235
					L12.118,308.235z"/>
				<path opacity="0.7" fill="#FFC000" d="M76.464,270.61c1.783-0.737,2.629-2.775,1.893-4.559
					c-8.822-21.364-33.376-31.564-54.741-22.744c-1.782,0.737-2.847,2.875-2.11,4.659c0.766,1.852,2.919,2.622,4.768,1.8
					c0.002-0.001,0.007-0.001,0.007-0.001c17.813-7.355,38.273,1.146,45.626,18.95C72.642,270.499,74.681,271.345,76.464,270.61z"/>
			</g>
			<g opacity="0.4">
				<path fill="#FFFFFF" d="M38.279,285.221L20.39,258.484h5.157l14.96,23.045l14.896-23.045h5.156l-17.952,26.736v18.717h-4.329
					V285.221z"/>
			</g>
		</g>
		<g>
			<circle opacity="0.3" fill="#FFFFFF" cx="120.301" cy="279.515" r="39"/>
			<g>
				<path opacity="0.3" fill="#FFFFFF" d="M93.598,306.786c-14.426-14.427-14.214-38.111,0.472-52.798
					c14.687-14.687,38.37-14.898,52.798-0.472c14.426,14.427,14.215,38.111-0.472,52.798
					C131.709,321,108.023,321.212,93.598,306.786 M92.184,308.2c15.23,15.23,40.135,15.02,55.626-0.472
					c15.491-15.49,15.702-40.395,0.472-55.626c-15.231-15.23-40.135-15.02-55.626,0.472S76.953,292.969,92.184,308.2L92.184,308.2z"
					/>
				<path fill="#FFC000" d="M156.258,270.588c1.781-0.738,2.629-2.775,1.893-4.56c-8.822-21.364-33.376-31.563-54.742-22.744
					c-1.783,0.736-2.847,2.875-2.109,4.659c0.765,1.852,2.919,2.622,4.766,1.8c0.004-0.001,0.008-0.001,0.008-0.001
					c17.813-7.356,38.273,1.146,45.625,18.95C152.436,270.477,154.475,271.321,156.258,270.588z"/>
			</g>
			<g opacity="0.6">
				<path fill="#FFFFFF" d="M118.096,285.49l-17.889-26.737h5.156l14.961,23.045l14.896-23.045h5.156l-17.953,26.737v18.716h-4.328
					V285.49z"/>
			</g>
		</g>
	</g>
	<path opacity="0.3" fill="#FFFFFF" d="M65,322c4.411,0,8,3.589,8,8v10c0,4.411-3.089,8-7.5,8h-55c-4.411,0-8.5-3.589-8.5-8v-10
		c0-4.411,4.089-8,8.5-8H65 M65.5,320h-55C4.977,320,0,324.478,0,330v10c0,5.522,4.977,10,10.5,10h55c5.523,0,9.5-4.478,9.5-10v-10
		c0-5.522-4.227-10-9.75-10H65.5z"/>
	<path opacity="0.3" fill="#FFFFFF" d="M155,340c0,5.522-4.477,10-10,10H90c-5.523,0-10-4.478-10-10v-10c0-5.522,4.477-10,10-10h55
		c5.523,0,10,4.478,10,10V340z"/>
	<path opacity="0.3" fill="#FFFFFF" d="M145,322c4.411,0,8,3.589,8,8v10c0,4.411-3.089,8-7.5,8h-55c-4.411,0-8.5-3.589-8.5-8v-10
		c0-4.411,4.089-8,8.5-8H145 M145.5,320h-55c-5.523,0-10.5,4.478-10.5,10v10c0,5.522,4.977,10,10.5,10h55c5.523,0,9.5-4.478,9.5-10
		v-10c0-5.522-4.227-10-9.75-10H145.5z"/>
	<path opacity="0.3" fill="#FFFFFF" d="M65,352c4.411,0,8,3.589,8,8v10c0,4.411-3.089,8-7.5,8h-55c-4.411,0-8.5-3.589-8.5-8v-10
		c0-4.411,4.089-8,8.5-8H65 M65.5,350h-55C4.977,350,0,354.478,0,360v10c0,5.522,4.977,10,10.5,10h55c5.523,0,9.5-4.478,9.5-10v-10
		c0-5.522-4.227-10-9.75-10H65.5z"/>
	<path opacity="0.3" fill="#FFFFFF" d="M155,370c0,5.522-4.477,10-10,10H90c-5.523,0-10-4.478-10-10v-10c0-5.522,4.477-10,10-10h55
		c5.523,0,10,4.478,10,10V370z"/>
	<path opacity="0.3" fill="#FFFFFF" d="M145,352c4.411,0,8,3.589,8,8v10c0,4.411-3.089,8-7.5,8h-55c-4.411,0-8.5-3.589-8.5-8v-10
		c0-4.411,4.089-8,8.5-8H145 M145.5,350h-55c-5.523,0-10.5,4.478-10.5,10v10c0,5.522,4.977,10,10.5,10h55c5.523,0,9.5-4.478,9.5-10
		v-10c0-5.522-4.227-10-9.75-10H145.5z"/>
	<path opacity="0.3" fill="#FFFFFF" d="M40,380.083c-21.54,0-39,17.759-39,39.667c0,0.084,0.006,0.166,0.006,0.25h2
		c0-0.084-0.006-0.166-0.006-0.25c0-20.77,16.598-37.667,37-37.667c20.401,0,37,16.897,37,37.667c0,0.084-0.006,0.166-0.006,0.25h2
		c0-0.084,0.006-0.166,0.006-0.25C79,397.842,61.539,380.083,40,380.083z"/>
	<path opacity="0.3" fill="#FFFFFF" d="M120,380.75c21.539,0,39,17.46,39,39c0-21.908-17.461-39.667-39-39.667
		c-21.54,0-39,17.759-39,39.667C81,398.21,98.461,380.75,120,380.75z"/>
	<path opacity="0.3" fill="#FFFFFF" d="M81.006,420L81.006,420c0-0.084-0.006-0.166-0.006-0.25
		C81,419.834,81.006,419.916,81.006,420z"/>
	<path opacity="0.3" fill="#FFFFFF" d="M158.994,420L158.994,420c0-0.084,0.006-0.166,0.006-0.25
		C159,419.834,158.994,419.916,158.994,420z"/>
	<path opacity="0.3" fill="#FFFFFF" d="M120,380.75c-21.539,0-39,17.46-39,39c0,0.084,0.006,0.166,0.006,0.25h2
		c0-0.084-0.006-0.166-0.006-0.25c0-20.77,16.598-37.667,37-37.667c20.401,0,37,16.897,37,37.667c0,0.084-0.006,0.166-0.006,0.25h2
		c0-0.084,0.006-0.166,0.006-0.25C159,398.21,141.539,380.75,120,380.75z"/>
	<path opacity="0.3" fill="#FFFFFF" d="M120,380.75c-21.539,0-39,17.46-39,39c0,0.084,0.006,0.166,0.006,0.25h2
		c0-0.084-0.006-0.166-0.006-0.25c0-20.77,16.598-37.667,37-37.667c20.401,0,37,16.897,37,37.667c0,0.084-0.006,0.166-0.006,0.25h2
		c0-0.084,0.006-0.166,0.006-0.25C159,398.21,141.539,380.75,120,380.75z"/>
	<g>
		<path opacity="0.3" fill="#FFFFFF" d="M120,382.083c-20.402,0-37,16.897-37,37.667c0,0.084,0.006,0.166,0.006,0.25h73.988
			c0-0.084,0.006-0.166,0.006-0.25C157,398.98,140.401,382.083,120,382.083z"/>
	</g>
</g>
<g id="圖層_4">
	<g opacity="0.4">
		<path fill="#FFFFFF" d="M19.801,329.871h4.368c1.768,0,2.964,0.572,2.964,2.301c0,0.923-0.442,1.534-1.261,1.938
			c1.144,0.325,1.703,1.195,1.703,2.353c0,1.886-1.599,2.691-3.276,2.691h-4.498V329.871z M21.842,333.628h2.067
			c0.728,0,1.248-0.325,1.248-1.104c0-0.871-0.676-1.066-1.404-1.066h-1.911V333.628z M21.842,337.567h2.184
			c0.793,0,1.508-0.26,1.508-1.222c0-0.949-0.585-1.326-1.469-1.326h-2.223V337.567z"/>
		<path fill="#FFFFFF" d="M31.488,329.871h2.093l3.471,9.282h-2.119l-0.702-2.067H30.76l-0.728,2.067h-2.067L31.488,329.871z
			 M31.293,335.565h2.405l-1.17-3.406h-0.026L31.293,335.565z"/>
		<path fill="#FFFFFF" d="M44.047,332.991c-0.143-0.923-1.027-1.625-2.028-1.625c-1.833,0-2.522,1.56-2.522,3.185
			c0,1.548,0.689,3.107,2.522,3.107c1.248,0,1.95-0.845,2.106-2.08h1.976c-0.208,2.327-1.794,3.796-4.082,3.796
			c-2.86,0-4.563-2.145-4.563-4.823c0-2.756,1.703-4.9,4.563-4.9c2.028,0,3.757,1.195,4.004,3.341H44.047z"/>
		<path fill="#FFFFFF" d="M47.491,329.871h2.041v3.848l3.627-3.848h2.548l-3.627,3.666l3.978,5.616h-2.561l-2.795-4.173l-1.17,1.183
			v2.99h-2.041V329.871z"/>
	</g>
	<g opacity="0.6">
		<path fill="#FFFFFF" d="M99.801,329.871h4.369c1.768,0,2.964,0.572,2.964,2.301c0,0.923-0.442,1.534-1.261,1.938
			c1.144,0.325,1.703,1.195,1.703,2.353c0,1.886-1.6,2.691-3.277,2.691h-4.498V329.871z M101.842,333.628h2.068
			c0.728,0,1.248-0.325,1.248-1.104c0-0.871-0.677-1.066-1.404-1.066h-1.912V333.628z M101.842,337.567h2.185
			c0.793,0,1.509-0.26,1.509-1.222c0-0.949-0.586-1.326-1.47-1.326h-2.224V337.567z"/>
		<path fill="#FFFFFF" d="M111.488,329.871h2.094l3.471,9.282h-2.119l-0.702-2.067h-3.472l-0.728,2.067h-2.067L111.488,329.871z
			 M111.293,335.565h2.405l-1.17-3.406h-0.026L111.293,335.565z"/>
		<path fill="#FFFFFF" d="M124.047,332.991c-0.143-0.923-1.027-1.625-2.028-1.625c-1.833,0-2.522,1.56-2.522,3.185
			c0,1.548,0.689,3.107,2.522,3.107c1.248,0,1.95-0.845,2.106-2.08h1.976c-0.208,2.327-1.794,3.796-4.082,3.796
			c-2.86,0-4.563-2.145-4.563-4.823c0-2.756,1.703-4.9,4.563-4.9c2.028,0,3.757,1.195,4.005,3.341H124.047z"/>
		<path fill="#FFFFFF" d="M127.491,329.871h2.041v3.848l3.628-3.848h2.547l-3.627,3.666l3.979,5.616h-2.561l-2.795-4.173
			l-1.171,1.183v2.99h-2.041V329.871z"/>
	</g>
	<g opacity="0.4">
		<path fill="#FFFFFF" d="M18.423,366.072c0,1.235,0.962,1.716,2.054,1.716c0.715,0,1.807-0.208,1.807-1.157
			c0-1.014-1.404-1.156-2.756-1.533c-1.378-0.339-2.769-0.924-2.769-2.64c0-1.911,1.794-2.808,3.471-2.808
			c1.937,0,3.718,0.845,3.718,2.989h-1.976c-0.065-1.104-0.845-1.403-1.833-1.403c-0.65,0-1.404,0.272-1.404,1.053
			c0,0.715,0.442,0.819,2.769,1.404c0.689,0.156,2.756,0.61,2.756,2.704c0,1.703-1.326,2.977-3.861,2.977
			c-2.054,0-3.991-1.014-3.952-3.302H18.423z"/>
		<path fill="#FFFFFF" d="M27.523,361.587h-2.782v-1.716h7.605v1.716h-2.782v7.566h-2.041V361.587z"/>
		<path fill="#FFFFFF" d="M35.947,359.871h2.093l3.471,9.282h-2.119l-0.702-2.067h-3.471l-0.728,2.067h-2.067L35.947,359.871z
			 M35.752,365.565h2.405l-1.17-3.406h-0.026L35.752,365.565z"/>
		<path fill="#FFFFFF" d="M42.317,359.871h5.005c1.664,0,2.717,1.157,2.717,2.561c0,1.093-0.429,1.911-1.469,2.327v0.026
			c1.001,0.273,1.287,1.222,1.352,2.171c0.039,0.585,0.013,1.69,0.39,2.197h-2.041c-0.234-0.585-0.221-1.482-0.325-2.223
			c-0.143-0.976-0.52-1.404-1.547-1.404h-2.041v3.627h-2.041V359.871z M44.358,364.07h2.236c0.923,0,1.404-0.391,1.404-1.326
			c0-0.897-0.481-1.287-1.404-1.287h-2.236V364.07z"/>
		<path fill="#FFFFFF" d="M53.757,361.587h-2.782v-1.716h7.605v1.716h-2.782v7.566h-2.041V361.587z"/>
	</g>
	<g opacity="0.6">
		<path fill="#FFFFFF" d="M98.424,366.072c0,1.235,0.961,1.716,2.054,1.716c0.715,0,1.808-0.208,1.808-1.157
			c0-1.014-1.404-1.156-2.757-1.533c-1.378-0.339-2.769-0.924-2.769-2.64c0-1.911,1.793-2.808,3.471-2.808
			c1.938,0,3.719,0.845,3.719,2.989h-1.977c-0.064-1.104-0.846-1.403-1.834-1.403c-0.649,0-1.403,0.272-1.403,1.053
			c0,0.715,0.442,0.819,2.769,1.404c0.689,0.156,2.757,0.61,2.757,2.704c0,1.703-1.326,2.977-3.861,2.977
			c-2.054,0-3.991-1.014-3.952-3.302H98.424z"/>
		<path fill="#FFFFFF" d="M107.523,361.587h-2.782v-1.716h7.605v1.716h-2.782v7.566h-2.041V361.587z"/>
		<path fill="#FFFFFF" d="M115.947,359.871h2.094l3.471,9.282h-2.119l-0.702-2.067h-3.472l-0.728,2.067h-2.067L115.947,359.871z
			 M115.752,365.565h2.405l-1.17-3.406h-0.026L115.752,365.565z"/>
		<path fill="#FFFFFF" d="M122.316,359.871h5.006c1.664,0,2.717,1.157,2.717,2.561c0,1.093-0.429,1.911-1.469,2.327v0.026
			c1.001,0.273,1.287,1.222,1.352,2.171c0.039,0.585,0.014,1.69,0.391,2.197h-2.041c-0.234-0.585-0.221-1.482-0.325-2.223
			c-0.144-0.976-0.521-1.404-1.548-1.404h-2.041v3.627h-2.041V359.871z M124.357,364.07h2.236c0.924,0,1.404-0.391,1.404-1.326
			c0-0.897-0.48-1.287-1.404-1.287h-2.236V364.07z"/>
		<path fill="#FFFFFF" d="M133.757,361.587h-2.782v-1.716h7.605v1.716h-2.782v7.566h-2.041V361.587z"/>
	</g>
	<g opacity="0.4">
		<path fill="#FFFFFF" d="M30.172,400.587H27.39v-1.716h7.605v1.716h-2.782v7.566h-2.041V400.587z"/>
		<path fill="#FFFFFF" d="M38.596,398.871h2.093l3.471,9.282h-2.119l-0.702-2.067h-3.471l-0.728,2.067h-2.067L38.596,398.871z
			 M38.401,404.565h2.405l-1.17-3.406H39.61L38.401,404.565z"/>
		<path fill="#FFFFFF" d="M44.966,398.871h4.368c1.768,0,2.964,0.572,2.964,2.301c0,0.923-0.442,1.534-1.261,1.938
			c1.144,0.325,1.703,1.195,1.703,2.353c0,1.886-1.599,2.691-3.276,2.691h-4.498V398.871z M47.007,402.628h2.067
			c0.728,0,1.248-0.325,1.248-1.104c0-0.871-0.676-1.066-1.404-1.066h-1.911V402.628z M47.007,406.567h2.184
			c0.793,0,1.508-0.26,1.508-1.222c0-0.949-0.585-1.326-1.469-1.326h-2.223V406.567z"/>
	</g>
	<g opacity="0.6">
		<path fill="#FFFFFF" d="M110.172,400.587h-2.781v-1.716h7.605v1.716h-2.783v7.566h-2.041V400.587z"/>
		<path fill="#FFFFFF" d="M118.596,398.871h2.094l3.471,9.282h-2.119l-0.701-2.067h-3.472l-0.728,2.067h-2.067L118.596,398.871z
			 M118.401,404.565h2.405l-1.17-3.406h-0.026L118.401,404.565z"/>
		<path fill="#FFFFFF" d="M124.966,398.871h4.368c1.768,0,2.965,0.572,2.965,2.301c0,0.923-0.443,1.534-1.262,1.938
			c1.145,0.325,1.703,1.195,1.703,2.353c0,1.886-1.6,2.691-3.276,2.691h-4.498V398.871z M127.007,402.628h2.067
			c0.729,0,1.248-0.325,1.248-1.104c0-0.871-0.676-1.066-1.404-1.066h-1.911V402.628z M127.007,406.567h2.185
			c0.793,0,1.508-0.26,1.508-1.222c0-0.949-0.585-1.326-1.469-1.326h-2.224V406.567z"/>
	</g>
</g>
</svg>
