<?xml version="1.0" encoding="utf-8"?>
<!-- Generator: Adobe Illustrator 16.0.3, SVG Export Plug-In . SVG Version: 6.00 Build 0)  -->
<!DOCTYPE svg PUBLIC "-//W3C//DTD SVG 1.1//EN" "http://www.w3.org/Graphics/SVG/1.1/DTD/svg11.dtd">
<svg version="1.1" id="圖層_1" xmlns="http://www.w3.org/2000/svg" xmlns:xlink="http://www.w3.org/1999/xlink" x="0px" y="0px"
	 width="90px" height="1440px" viewBox="0 0 90 1440" enable-background="new 0 0 90 1440" xml:space="preserve">
<g id="圖層_3" display="none">
	<rect y="0" display="inline" width="90" height="1440"/>
</g>
<g>
	<rect y="0" fill="none" width="90" height="90"/>
</g>
<g>
	<rect y="90" fill="none" width="90" height="90"/>
</g>
<g>
	<rect x="0.001" y="180" fill="none" width="89.999" height="90"/>
</g>
<g>
	<rect x="0.001" y="270" fill="none" width="89.999" height="90"/>
</g>
<g>
	<rect y="900" fill="none" width="90" height="90"/>
</g>
<g>
	<rect y="450" fill="none" width="90" height="90"/>
</g>
<g>
	<rect y="720" fill="none" width="90" height="90"/>
</g>
<g>
	<rect y="810" fill="none" width="90" height="90"/>
</g>
<g>
	<rect y="990" fill="none" width="90" height="90"/>
</g>
<path fill="#FFFFFF" d="M58.109,32.97c0-0.598-0.482-1.081-1.08-1.081H32.971c-0.597,0-1.081,0.483-1.081,1.081v24.059
	c0,0.597,0.484,1.081,1.081,1.081h24.058c0.599,0,1.082-0.484,1.082-1.081V32.97H58.109z"/>
<path fill="#FFFFFF" d="M49.505,115.919c-0.674,0.669-6.843,6.642-11.494,11.642H27.774c-0.778,0-1.41,0.978-1.41,1.757v11.703
	c0,0.778,0.632,0.54,1.41,0.54h10.097c4.74,5,11.12,11.887,11.597,12.374c0.916,0.939,1.896,0.18,1.896-1.428
	c0-1.238,0-32.767,0-34.563C51.363,116.173,50.287,115.14,49.505,115.919z"/>
<g>
	<path fill="#FFFFFF" d="M49.506,205.918c-0.674,0.669-6.843,6.642-11.494,11.642H27.775c-0.778,0-1.41,0.978-1.41,1.757v11.704
		c0,0.779,0.632,0.54,1.41,0.54h10.097c4.739,5,11.12,11.887,11.597,12.374c0.916,0.939,1.896,0.18,1.896-1.428
		c0-1.238,0-32.767,0-34.563C51.365,206.172,50.287,205.14,49.506,205.918z"/>
	<g>
		<path fill="#FFFFFF" d="M56.484,209.849v4.844h0.002c5.682,0,10.305,4.624,10.305,10.307c0,5.684-4.623,10.308-10.305,10.308
			h-0.002v4.844c8.367,0,15.149-6.783,15.149-15.151S64.852,209.849,56.484,209.849z"/>
		<path fill="#FFFFFF" d="M56.486,229.829c2.666,0,4.828-2.163,4.828-4.831c0-2.667-2.162-4.83-4.828-4.83h-0.002v9.661H56.486z"/>
	</g>
</g>
<g>
	<polygon fill="#FFFFFF" points="62.43,330.367 52.75,330.367 52.75,335.187 62.43,335.187 67.25,335.187 67.25,330.367 
		67.25,320.687 62.43,320.687 	"/>
	<polygon fill="#FFFFFF" points="27.571,320.687 22.751,320.687 22.751,330.367 22.751,335.187 27.571,335.187 37.251,335.187 
		37.251,330.367 27.571,330.367 	"/>
	<polygon fill="#FFFFFF" points="62.43,294.812 52.75,294.812 52.75,299.633 62.43,299.633 62.43,309.312 67.25,309.312 
		67.25,299.633 67.25,294.812 	"/>
	<polygon fill="#FFFFFF" points="22.751,294.812 22.751,299.633 22.751,309.312 27.571,309.312 27.571,299.633 37.251,299.633 
		37.251,294.812 27.571,294.812 	"/>
</g>
<g>
	<rect x="0.001" y="360" fill="none" width="89.999" height="90"/>
</g>
<g>
	<polygon fill="#FFFFFF" points="32.431,394.492 22.751,394.492 22.751,399.312 32.431,399.312 37.251,399.312 37.251,394.492 
		37.251,384.812 32.431,384.812 	"/>
	<polygon fill="#FFFFFF" points="57.57,394.492 57.57,384.812 52.75,384.812 52.75,394.492 52.75,399.312 57.57,399.312 
		67.25,399.312 67.25,394.492 	"/>
	<polygon fill="#FFFFFF" points="22.751,410.687 22.751,415.508 32.431,415.508 32.431,425.187 37.251,425.187 37.251,415.508 
		37.251,410.687 32.431,410.687 	"/>
	<polygon fill="#FFFFFF" points="52.75,410.687 52.75,415.508 52.75,425.187 57.57,425.187 57.57,415.508 67.25,415.508 
		67.25,410.687 57.57,410.687 	"/>
</g>
<g>
	<rect y="540" fill="none" width="90" height="90"/>
</g>
<g>
	<rect y="630" fill="none" width="90" height="90"/>
</g>
<path fill="#FFFFFF" d="M63.891,744.986H26.108c-1.347,0-2.442,1.096-2.442,2.441v28.024c0,1.349,1.096,2.443,2.442,2.443h7.924
	l-2.745,10.986l18.406-10.986h14.197c1.346,0,2.441-1.096,2.441-2.443v-28.024C66.333,746.082,65.236,744.986,63.891,744.986z
	 M38.118,779.685l1.546-6.186H28.063v-24.117h33.875V773.5H48.48L38.118,779.685z"/>
<g>
	<path fill="#FFFFFF" d="M62.566,866.773L48.266,852.47l-2.232-2.234h-0.004c-0.426-0.428-1.053-0.535-1.579-0.322
		c-0.175,0.074-0.337,0.179-0.479,0.32l-2.236,2.236l-14.299,14.301c-0.569,0.57-0.571,1.492-0.003,2.061l2.236,2.236
		c0.567,0.568,1.494,0.568,2.063-0.002l13.27-13.268l13.271,13.27c0.568,0.568,1.494,0.568,2.061,0l2.236-2.236
		C63.135,868.265,63.137,867.343,62.566,866.773z"/>
	<polygon fill="#FFFFFF" points="58.799,838.505 31.201,838.505 24.731,838.505 24.731,844.972 24.731,849.808 30.201,849.808 
		30.201,843.972 59.799,843.972 59.799,849.808 65.268,849.808 65.268,844.972 65.268,838.505 	"/>
</g>
<g>
	<rect y="1080" fill="none" width="90" height="90"/>
</g>
<g>
	<rect y="1260" fill="none" width="90" height="90"/>
</g>
<g>
	<rect y="1170" fill="none" width="90" height="90"/>
</g>
<g>
	<rect y="1350" fill="none" width="90" height="90"/>
</g>
<g>
	<path fill="#FFFFFF" d="M29.896,948.062c1.567,0,29.086,0,30.168,0c1.402,0,2.447-1.166,1.627-2.219
		c-0.657-0.842-13.922-13.754-15.055-15.191c-0.746-0.945-2.521-0.955-3.269-0.024c-0.832,1.034-14.163,14.049-15.089,15.272
		C27.6,946.798,28.351,948.062,29.896,948.062z"/>
	<path fill="#FFFFFF" d="M62,956.056c0-1.103-0.893-1.994-1.994-1.994H29.994c-1.102,0-1.994,0.893-1.994,1.994v2.012
		c0,1.103,0.893,1.994,1.994,1.994h30.012c1.102,0,1.994-0.893,1.994-1.994V956.056z"/>
</g>
<g>
	<path fill="#FFFFFF" d="M35.215,1109.326c0-0.365-0.299-0.662-0.666-0.662h-7.463c-0.365,0-0.662,0.297-0.662,0.662v31.348
		c0,0.367,0.297,0.664,0.662,0.664h7.463c0.367,0,0.666-0.297,0.666-0.664V1109.326z"/>
	<path fill="#FFFFFF" d="M49.395,1128.897c0-0.367-0.297-0.664-0.662-0.664h-7.465c-0.367,0-0.664,0.297-0.664,0.664v11.775
		c0,0.366,0.297,0.663,0.664,0.663h7.465c0.365,0,0.662-0.297,0.662-0.663V1128.897z"/>
	<path fill="#FFFFFF" d="M63.576,1119.277c0-0.366-0.297-0.663-0.664-0.663h-7.463c-0.367,0-0.664,0.297-0.664,0.663v21.396
		c0,0.366,0.297,0.664,0.664,0.664h7.463c0.367,0,0.664-0.298,0.664-0.664V1119.277z"/>
</g>
<g>
	<path fill="#FFFFFF" d="M55.098,579.608h-1.311v10.785h1.375c2.148,0,2.578-1.354,2.578-5.521
		C57.74,581.391,57.439,579.608,55.098,579.608z"/>
	<path fill="#FFFFFF" d="M65.526,565.136H24.475c-1.463,0-2.648,1.187-2.648,2.649v34.43c0,1.463,1.186,2.648,2.648,2.648h41.052
		c1.463,0,2.648-1.186,2.648-2.648v-34.43C68.175,566.323,66.989,565.136,65.526,565.136z M42.787,592.67h-2.836v-12.246h-0.043
		L37.18,592.67h-2.406l-2.729-12.246h-0.043v12.246h-2.836v-15.34h4.598l2.191,10.828h0.043l2.213-10.828h4.576V592.67z
		 M48.244,592.67H45.15v-15.34h3.094V592.67z M55.57,592.67h-4.877v-15.34h5.07c4.275,0,5.07,2.922,5.07,7.455
		C60.834,590.199,59.674,592.67,55.57,592.67z"/>
</g>
<g>
	<path fill="#FFFFFF" d="M65.525,655.136H24.474c-1.463,0-2.648,1.187-2.648,2.649v34.43c0,1.463,1.186,2.648,2.648,2.648h41.052
		c1.463,0,2.648-1.186,2.648-2.648v-34.43C68.174,656.323,66.988,655.136,65.525,655.136z M35.084,682.669h-8.572v-15.34h3.094
		v12.805h5.479V682.669z M41.357,682.97c-4.641,0-5.221-3.309-5.221-7.971s0.58-7.971,5.221-7.971s5.221,3.309,5.221,7.971
		S45.998,682.97,41.357,682.97z M60.693,682.669h-3.459l-1.719-11.129h-0.043l-1.719,11.129h-3.459l-2.793-15.34h2.965l1.697,11.344
		h0.043l1.805-11.344h2.965l1.805,11.344h0.043l1.697-11.344h2.965L60.693,682.669z"/>
	<path fill="#FFFFFF" d="M41.357,669.306c-1.826,0-2.127,1.59-2.127,5.693c0,4.125,0.301,5.693,2.127,5.693s2.127-1.568,2.127-5.693
		C43.484,670.896,43.184,669.306,41.357,669.306z"/>
</g>
<path fill="#FFFFFF" d="M65.526,475.136H24.475c-1.463,0-2.648,1.187-2.648,2.649v34.43c0,1.463,1.186,2.648,2.648,2.648h41.052
	c1.463,0,2.648-1.186,2.648-2.648v-34.43C68.175,476.323,66.989,475.136,65.526,475.136z M47.202,502.671h-3.094v-6.811h-3.609
	v6.811h-3.094v-15.34h3.094v5.865h3.609v-5.865h3.094V502.671z M52.595,502.671h-3.094v-15.34h3.094V502.671z"/>
<g>
	<g>
		<polygon fill="#FFFFFF" points="35.998,1308.158 35.955,1308.158 33.764,1297.33 29.166,1297.33 29.166,1312.67 32.002,1312.67 
			32.002,1300.424 32.045,1300.424 34.773,1312.67 37.18,1312.67 39.908,1300.424 39.951,1300.424 39.951,1312.67 42.787,1312.67 
			42.787,1297.33 38.211,1297.33 		"/>
		<rect x="45.15" y="1297.33" fill="#FFFFFF" width="3.094" height="15.34"/>
		<path fill="#FFFFFF" d="M55.764,1297.33h-5.07v15.34h4.877c4.104,0,5.264-2.471,5.264-7.885
			C60.834,1300.252,60.039,1297.33,55.764,1297.33z M55.162,1310.392h-1.375v-10.785h1.311c2.342,0,2.643,1.783,2.643,5.264
			C57.74,1309.039,57.311,1310.392,55.162,1310.392z"/>
	</g>
	<path fill="#FFFFFF" d="M65.525,1285.136H24.474c-1.463,0-2.648,1.187-2.648,2.649v34.43c0,1.463,1.186,2.648,2.648,2.648h41.052
		c1.463,0,2.648-1.186,2.648-2.648v-34.43C68.174,1286.323,66.988,1285.136,65.525,1285.136z M65.174,1321.864H24.825v-33.728
		h40.349V1321.864z"/>
</g>
<g>
	<g>
		<polygon fill="#FFFFFF" points="44.107,1213.195 40.499,1213.195 40.499,1207.33 37.405,1207.33 37.405,1222.67 40.499,1222.67 
			40.499,1215.859 44.107,1215.859 44.107,1222.67 47.201,1222.67 47.201,1207.33 44.107,1207.33 		"/>
		<rect x="49.5" y="1207.33" fill="#FFFFFF" width="3.094" height="15.34"/>
	</g>
	<path fill="#FFFFFF" d="M65.525,1195.135H24.474c-1.463,0-2.648,1.187-2.648,2.649v34.43c0,1.463,1.186,2.648,2.648,2.648h41.051
		c1.463,0,2.648-1.186,2.648-2.648v-34.43C68.174,1196.322,66.988,1195.135,65.525,1195.135z M65.174,1231.863H24.826v-33.728
		h40.348V1231.863z"/>
</g>
<g>
	<path fill="#FFFFFF" d="M65.525,1375.135H24.474c-1.463,0-2.648,1.187-2.648,2.649v34.43c0,1.463,1.186,2.648,2.648,2.648h41.051
		c1.463,0,2.648-1.186,2.648-2.648v-34.43C68.174,1376.322,66.988,1375.135,65.525,1375.135z M65.174,1411.863H24.826v-33.728
		h40.348V1411.863z"/>
	<polygon fill="#FFFFFF" points="35.084,1400.134 29.606,1400.134 29.606,1387.329 26.512,1387.329 26.512,1402.669 
		35.084,1402.669 	"/>
	<path fill="#FFFFFF" d="M41.358,1402.969c4.64,0,5.22-3.309,5.22-7.971s-0.58-7.971-5.22-7.971c-4.641,0-5.221,3.309-5.221,7.971
		S36.717,1402.969,41.358,1402.969z M41.358,1389.305c1.826,0,2.127,1.59,2.127,5.693c0,4.125-0.301,5.693-2.127,5.693
		s-2.127-1.568-2.127-5.693C39.231,1390.895,39.532,1389.305,41.358,1389.305z"/>
	<polygon fill="#FFFFFF" points="53.754,1402.669 55.473,1391.54 55.516,1391.54 57.234,1402.669 60.693,1402.669 63.486,1387.329 
		60.521,1387.329 58.824,1398.673 58.781,1398.673 56.977,1387.329 54.012,1387.329 52.208,1398.673 52.165,1398.673 
		50.468,1387.329 47.502,1387.329 50.296,1402.669 	"/>
</g>
<g>
	<path fill="#FFFFFF" d="M64.674,1018.636v32.729H25.326v-32.729H64.674 M65.525,1015.136H24.474c-1.463,0-2.648,1.186-2.648,2.65
		v34.43c0,1.463,1.186,2.648,2.648,2.648h41.051c1.463,0,2.648-1.186,2.648-2.648v-34.43
		C68.174,1016.322,66.988,1015.136,65.525,1015.136L65.525,1015.136z"/>
	<g>
		<polygon fill="#FFFFFF" points="47.594,1032.301 39.655,1032.301 39.655,1035.4 42.405,1035.4 42.405,1043.183 39.655,1043.183 
			39.655,1046.283 50.344,1046.283 50.344,1043.183 47.594,1043.183 		"/>
		<path fill="#FFFFFF" d="M44.977,1030.131c0.879,0.006,1.635-0.301,2.273-0.922c0.641-0.621,0.963-1.379,0.969-2.275
			s-0.307-1.652-0.938-2.275c-0.631-0.619-1.383-0.932-2.26-0.938c-0.934-0.008-1.706,0.307-2.316,0.936
			c-0.612,0.629-0.92,1.375-0.927,2.234c-0.007,0.877,0.302,1.635,0.922,2.273C43.323,1029.802,44.08,1030.125,44.977,1030.131z"/>
	</g>
</g>
</svg>
